<?xml version="1.0" encoding="UTF-8"?>
<svg version="1.1" xmlns="http://www.w3.org/2000/svg" width="460" height="460">
<path d="M0 0 C151.8 0 303.6 0 460 0 C460 151.8 460 303.6 460 460 C308.2 460 156.4 460 0 460 C0 308.2 0 156.4 0 0 Z " fill="#191A1A" transform="translate(0,0)"/>
<path d="M0 0 C151.8 0 303.6 0 460 0 C460 15.18 460 30.36 460 46 C308.2 46 156.4 46 0 46 C0 30.82 0 15.64 0 0 Z " fill="#00070B" transform="translate(0,414)"/>
<path d="M0 0 C2.96365068 0.80559552 4.67470804 2.51421452 6.96875 4.53515625 C11.42582614 7.42644216 15.98828664 10.1152204 20.78125 12.41015625 C25.619301 14.75114867 30.09380789 17.66903809 34.6484375 20.51171875 C38.5633151 22.89749122 42.56769531 25.06945504 46.609375 27.23046875 C49.51082731 28.83491423 52.21118697 30.69678089 54.96875 32.53515625 C56.83105203 33.44997128 58.69393045 34.36368085 60.5625 35.265625 C64.75875947 37.47956059 68.72457659 40.0832415 72.72265625 42.6328125 C76.48747496 44.92991146 76.48747496 44.92991146 82.96875 47.53515625 C82.96875 67.66515625 82.96875 87.79515625 82.96875 108.53515625 C78.34875 111.17515625 73.72875 113.81515625 68.96875 116.53515625 C66.66702011 117.9354134 64.37194816 119.34693036 62.09375 120.78515625 C58.14151211 123.24337185 54.21966395 125.47569689 50.015625 127.4609375 C46.27917153 129.42186251 42.80327451 131.8147751 39.2890625 134.14453125 C36.96875 135.53515625 36.96875 135.53515625 34.96875 135.53515625 C34.96875 136.19515625 34.96875 136.85515625 34.96875 137.53515625 C33.97875 137.53515625 32.98875 137.53515625 31.96875 137.53515625 C31.96875 120.70515625 31.96875 103.87515625 31.96875 86.53515625 C26.97377731 90.90575735 22.15148371 95.20924797 17.5 99.90625 C16.93422241 100.47344254 16.36844482 101.04063507 15.78552246 101.62501526 C14.01086423 103.40519048 12.23974901 105.18884144 10.46875 106.97265625 C9.25283886 108.19359315 8.03669484 109.41429817 6.8203125 110.63476562 C3.86710034 113.59889638 0.91705602 116.56614583 -2.03125 119.53515625 C-4.98390112 118.20521242 -7.05475216 116.75736309 -9.33105469 114.46240234 C-9.95139587 113.8419101 -10.57173706 113.22141785 -11.21087646 112.5821228 C-11.86831848 111.91435822 -12.5257605 111.24659363 -13.203125 110.55859375 C-13.8855426 109.87334625 -14.56796021 109.18809875 -15.27105713 108.48208618 C-17.44586598 106.2960978 -19.61361072 104.10325196 -21.78125 101.91015625 C-23.2560499 100.4253237 -24.73130506 98.94094319 -26.20703125 97.45703125 C-29.82040448 93.82162715 -33.42745853 90.18005801 -37.03125 86.53515625 C-37.0104689 87.15410263 -36.98968781 87.77304901 -36.96827698 88.41075134 C-36.76587372 94.88442881 -36.67004268 101.35362509 -36.63452148 107.83032227 C-36.60751578 110.24288569 -36.55382209 112.65530969 -36.47241211 115.06665039 C-35.83641745 134.69336469 -35.83641745 134.69336469 -39.55731201 139.51104736 C-43.60172371 142.94142122 -48.11435357 144.691816 -53.03125 146.53515625 C-53.36125 147.19515625 -53.69125 147.85515625 -54.03125 148.53515625 C-53.48597656 148.68210937 -52.94070312 148.8290625 -52.37890625 148.98046875 C-47.163491 150.53172047 -43.17706916 152.60111402 -38.75 155.7265625 C-35.25996416 158.04823864 -31.63353975 160.06688663 -27.96875 162.09765625 C-19.56643843 166.75874328 -19.56643843 166.75874328 -15.53125 169.34765625 C-12.99234057 170.95975139 -10.43009341 172.48422777 -7.78125 173.91015625 C-7.15734375 174.24789062 -6.5334375 174.585625 -5.890625 174.93359375 C-3.54814977 175.69145338 -2.31925123 175.37234589 -0.03125 174.53515625 C0.566875 174.08140625 1.165 173.62765625 1.78125 173.16015625 C4.03860113 171.48326684 6.27529724 170.59301761 8.86328125 169.5390625 C12.47039522 167.81915844 15.72777046 165.54280182 19.0703125 163.36328125 C21.8587468 161.60453832 24.68429987 160.0211031 27.59375 158.47265625 C31.11382189 156.59729031 34.43322533 154.60854272 37.71875 152.34765625 C40.28611013 150.58769913 42.45226845 149.32921321 45.34375 148.09765625 C49.58652815 146.26887257 53.21037027 143.87927561 57.07421875 141.36328125 C60.70934091 139.06741462 64.45757104 137.0449765 68.25 135.0234375 C71.90479084 133.02275458 75.43848408 130.84204218 78.97265625 128.63671875 C80.96875 127.53515625 80.96875 127.53515625 82.96875 127.53515625 C82.96875 134.13515625 82.96875 140.73515625 82.96875 147.53515625 C81.48375 148.25703125 79.99875 148.97890625 78.46875 149.72265625 C74.55867946 151.6749572 70.88659581 153.79380411 67.21875 156.16015625 C64.42536412 157.8672254 61.55073799 159.38099278 58.65625 160.91015625 C53.48237671 163.66120076 48.56408989 166.65185353 43.65625 169.84765625 C40.06543473 172.10235421 36.3420046 174.0658226 32.6015625 176.05859375 C30.03836659 177.49611312 27.63872702 179.05738392 25.21875 180.72265625 C22.65138987 182.48261337 20.48523155 183.74109929 17.59375 184.97265625 C11.68375238 187.52006902 5.54592984 190.95797641 0.96875 195.53515625 C-4.81889545 196.19076042 -7.91575712 194.87728471 -12.71875 191.72265625 C-13.81574219 191.01496094 -14.91273438 190.30726563 -16.04296875 189.578125 C-17.72895435 188.42548387 -19.39690069 187.24103005 -20.98828125 185.9609375 C-23.80292258 183.99660847 -26.87746344 182.87856104 -30.03125 181.53515625 C-32.13917054 180.30553593 -34.22295547 179.0336554 -36.28125 177.72265625 C-41.26873123 174.58228332 -46.34220545 171.68543877 -51.5390625 168.90625 C-53.824871 167.64869705 -56.02213333 166.31616186 -58.21875 164.91015625 C-60.66510894 163.34665669 -63.09895261 161.97251792 -65.71875 160.72265625 C-70.70466121 158.31873477 -75.31418384 155.30167729 -79.98046875 152.33984375 C-82.63168799 150.77151688 -85.14088036 149.57547482 -88.03125 148.53515625 C-88.03125 147.87515625 -88.03125 147.21515625 -88.03125 146.53515625 C-82.14401431 142.11688265 -75.52959947 138.61028741 -69.02734375 135.1875 C-68.03863281 134.64222656 -67.04992187 134.09695312 -66.03125 133.53515625 C-65.22301788 133.20540298 -64.41478577 132.87564972 -63.58206177 132.53590393 C-60.60108621 131.1357395 -58.40461957 129.83130824 -56.03125 127.53515625 C-54.65757648 123.03004286 -54.93788374 118.7060741 -55.15234375 114.03515625 C-55.17266277 112.03504417 -55.19293207 110.03493014 -55.2102747 108.03479004 C-55.25450723 104.53377646 -55.36476587 101.03481562 -55.46875 97.53515625 C-55.58904084 93.3573904 -55.69568504 89.18136318 -55.73414612 85.00195312 C-55.76244294 82.40348321 -55.83185015 79.80506099 -55.94688416 77.20898438 C-56.04089454 68.6231171 -56.04089454 68.6231171 -53.11721802 65.47265625 C-50.81707812 63.93406409 -48.51808079 62.740506 -46.03125 61.53515625 C-45.31581528 60.98980225 -44.60038055 60.44444824 -43.86326599 59.88256836 C-42.03125 58.53515625 -42.03125 58.53515625 -40.015625 58.6328125 C-37.59820432 59.73207269 -36.13101563 61.07150825 -34.28125 62.97265625 C-33.66765625 63.59011719 -33.0540625 64.20757812 -32.421875 64.84375 C-31.03125 66.53515625 -31.03125 66.53515625 -31.03125 68.53515625 C-30.44214844 68.79683594 -29.85304687 69.05851562 -29.24609375 69.328125 C-26.91339566 70.59938375 -25.42770632 71.93746156 -23.59375 73.84765625 C-22.98660156 74.47285156 -22.37945312 75.09804687 -21.75390625 75.7421875 C-21.18542969 76.33386719 -20.61695313 76.92554688 -20.03125 77.53515625 C-19.20625 78.36015625 -18.38125 79.18515625 -17.53125 80.03515625 C-13.03125 84.53515625 -8.53125 89.03515625 -4.03125 93.53515625 C0.91343767 92.33644409 3.10382809 89.28950075 6.21484375 85.546875 C8.53839426 82.88177809 11.25524947 80.79640669 13.96875 78.53515625 C15.7823588 76.49583631 17.53432416 74.42061333 19.2578125 72.3046875 C21.05084533 70.45024943 22.6595058 69.62617628 24.96875 68.53515625 C25.2575 67.95765625 25.54625 67.38015625 25.84375 66.78515625 C26.97183924 64.52897778 28.13556812 63.06322223 29.84375 61.22265625 C30.33617187 60.69027344 30.82859375 60.15789062 31.3359375 59.609375 C32.96875 58.53515625 32.96875 58.53515625 34.87890625 58.68359375 C37.33921046 59.68611023 39.34670878 60.96085023 41.53125 62.47265625 C42.29566406 62.99730469 43.06007813 63.52195313 43.84765625 64.0625 C44.54761719 64.54847656 45.24757813 65.03445312 45.96875 65.53515625 C46.95875 66.19515625 47.94875 66.85515625 48.96875 67.53515625 C49.235237 70.58590709 49.31632146 73.43141804 49.26171875 76.48046875 C49.25747391 77.36548065 49.25322906 78.25049255 49.24885559 79.162323 C49.23203259 81.9952407 49.19437425 84.82745277 49.15625 87.66015625 C49.14120782 89.57811474 49.12751861 91.49608436 49.11523438 93.4140625 C49.08211727 98.12136656 49.03031055 102.82814169 48.96875 107.53515625 C50.06960938 106.89835937 51.17046875 106.2615625 52.3046875 105.60546875 C55.12496421 103.97406747 57.90503888 102.66389193 60.96875 101.53515625 C63.44375 100.54515625 63.44375 100.54515625 65.96875 99.53515625 C65.96875 85.67515625 65.96875 71.81515625 65.96875 57.53515625 C64.31875 57.20515625 62.66875 56.87515625 60.96875 56.53515625 C58.53125 55.15234375 58.53125 55.15234375 55.96875 53.41015625 C51.93294271 50.75388094 47.86885779 48.349075 43.59375 46.09765625 C37.89783869 43.08734683 32.43548572 39.79461575 26.97265625 36.3828125 C23.70927103 34.37555475 20.38796785 32.51765662 17.0234375 30.6875 C14.89555145 29.49410383 12.83982145 28.21909696 10.78125 26.91015625 C7.59959203 24.89636877 4.38572316 23.12974372 0.96875 21.53515625 C0.164375 21.06078125 -0.64 20.58640625 -1.46875 20.09765625 C-4.18616943 19.22847152 -4.18616943 19.22847152 -7.09375 20.97265625 C-8.41017322 21.82076405 -9.72205972 22.67592534 -11.03125 23.53515625 C-12.94226241 24.66973444 -14.85948327 25.79389071 -16.78125 26.91015625 C-17.81378906 27.51472656 -18.84632813 28.11929688 -19.91015625 28.7421875 C-22.8208471 30.4142865 -25.75834961 32.01573122 -28.71875 33.59765625 C-31.99989444 35.36621638 -35.10178908 37.21363749 -38.15625 39.34765625 C-43.12780356 42.77010254 -48.45499582 45.47256464 -53.82861328 48.20043945 C-57.36137717 50.01734766 -60.65651093 51.90308812 -63.8671875 54.25 C-67.03125 56.53515625 -67.03125 56.53515625 -70.03125 57.53515625 C-70.0282338 58.29048645 -70.02521759 59.04581665 -70.02210999 59.82403564 C-69.99985554 66.94586078 -70.01104433 74.06647926 -70.05971622 81.18814468 C-70.08356187 84.84951212 -70.09451516 88.5099693 -70.07592773 92.17138672 C-70.05846111 95.70571733 -70.07496104 99.23841336 -70.11492729 102.77254486 C-70.12873218 104.77552441 -70.10744332 106.77864598 -70.08570862 108.78155518 C-70.22750234 117.66338784 -70.22750234 117.66338784 -72.57931519 120.2142334 C-74.46264648 121.29199219 -74.46264648 121.29199219 -78.03125 122.53515625 C-78.69125 123.07140625 -79.35125 123.60765625 -80.03125 124.16015625 C-82.03125 125.53515625 -82.03125 125.53515625 -89.03125 127.53515625 C-89.03125 101.13515625 -89.03125 74.73515625 -89.03125 47.53515625 C-85.07125 45.55515625 -81.11125 43.57515625 -77.03125 41.53515625 C-74.77890552 40.21990124 -72.54399049 38.87333222 -70.34375 37.47265625 C-66.02234975 34.76149205 -61.67815109 32.18153316 -57.19921875 29.7421875 C-54.81593156 28.41527626 -52.48746584 27.01395221 -50.15625 25.59765625 C-46.60493327 23.44366943 -43.00822254 21.42771 -39.34375 19.47265625 C-36.15855891 17.76134402 -33.17739095 16.01166313 -30.28125 13.84765625 C-27.54118325 11.89799337 -25.1616919 10.70292091 -22.0625 9.484375 C-1.32113828 -0.20822288 -1.32113828 -0.20822288 0 0 Z " fill="#F7F7F7" transform="translate(233.03125,109.46484375)"/>
<path d="M0 0 C0.78503906 0.00773437 1.57007813 0.01546875 2.37890625 0.0234375 C3.55646484 0.01183594 3.55646484 0.01183594 4.7578125 0 C10.62559838 0.02012963 10.62559838 0.02012963 12.87890625 2.2734375 C13.07747597 5.14685811 13.15719571 7.90205738 13.12890625 10.7734375 C13.13664062 11.55847656 13.144375 12.34351563 13.15234375 13.15234375 C13.13221412 19.02012963 13.13221412 19.02012963 10.87890625 21.2734375 C8.00548564 21.47200722 5.25028637 21.55172696 2.37890625 21.5234375 C1.20134766 21.53503906 1.20134766 21.53503906 0 21.546875 C-5.86778588 21.52674537 -5.86778588 21.52674537 -8.12109375 19.2734375 C-8.31966347 16.40001689 -8.39938321 13.64481762 -8.37109375 10.7734375 C-8.37882813 9.98839844 -8.3865625 9.20335937 -8.39453125 8.39453125 C-8.36977533 1.17818136 -7.21634989 0.02475592 0 0 Z " fill="#E8E8E8" transform="translate(168.12109375,323.7265625)"/>
<path d="M0 0 C3.09375 -0.04125 6.1875 -0.0825 9.375 -0.125 C10.83558838 -0.15231201 10.83558838 -0.15231201 12.32568359 -0.18017578 C13.09219238 -0.1851709 13.85870117 -0.19016602 14.6484375 -0.1953125 C15.82672119 -0.21102295 15.82672119 -0.21102295 17.02880859 -0.22705078 C19 0 19 0 21 2 C21.56833559 9.16102842 21.56833559 9.16102842 19.6875 11.9375 C18 13 18 13 15 14 C16.98 14.66 18.96 15.32 21 16 C21 17.65 21 19.3 21 21 C18.5 21.4375 18.5 21.4375 15 21 C12.7629704 19.35698391 10.81712441 17.56701496 8.83203125 15.62890625 C6.99373748 13.77900087 6.99373748 13.77900087 4 13 C4 15.64 4 18.28 4 21 C2.68 21 1.36 21 0 21 C0 14.07 0 7.14 0 0 Z " fill="#F0F0F0" transform="translate(184,324)"/>
<path d="M0 0 C2.8875 -0.061875 5.775 -0.12375 8.75 -0.1875 C9.65331055 -0.21481201 10.55662109 -0.24212402 11.48730469 -0.27026367 C14.96693443 -0.3064288 17.39449101 -0.29950904 20.55078125 1.26171875 C22.28494927 3.34178551 22.51373334 4.31658654 22.4375 7 C22.43621094 7.680625 22.43492187 8.36125 22.43359375 9.0625 C21.84537186 11.69095097 21.26603115 12.51234134 19 14 C15.64453125 14.29296875 15.64453125 14.29296875 11.8125 14.1875 C10.54019531 14.16042969 9.26789063 14.13335937 7.95703125 14.10546875 C6.49330078 14.05326172 6.49330078 14.05326172 5 14 C5 16.64 5 19.28 5 22 C3.35 22 1.7 22 0 22 C0 14.74 0 7.48 0 0 Z " fill="#E1E1E1" transform="translate(207,323)"/>
<path d="M0 0 C0.82741699 0.01047363 1.65483398 0.02094727 2.50732422 0.03173828 C3.40322266 0.03818359 4.29912109 0.04462891 5.22216797 0.05126953 C6.62789063 0.07640625 6.62789063 0.07640625 8.06201172 0.10205078 C9.00689453 0.11107422 9.95177734 0.12009766 10.92529297 0.12939453 C13.26278464 0.15300556 15.59977295 0.18593562 17.93701172 0.22705078 C17.93701172 1.54705078 17.93701172 2.86705078 17.93701172 4.22705078 C11.99701172 4.22705078 6.05701172 4.22705078 -0.06298828 4.22705078 C-0.06298828 5.54705078 -0.06298828 6.86705078 -0.06298828 8.22705078 C5.87701172 8.22705078 11.81701172 8.22705078 17.93701172 8.22705078 C17.93701172 9.87705078 17.93701172 11.52705078 17.93701172 13.22705078 C11.99701172 13.22705078 6.05701172 13.22705078 -0.06298828 13.22705078 C-0.06298828 14.21705078 -0.06298828 15.20705078 -0.06298828 16.22705078 C5.87701172 16.22705078 11.81701172 16.22705078 17.93701172 16.22705078 C17.93701172 17.87705078 17.93701172 19.52705078 17.93701172 21.22705078 C14.83302194 21.31415367 11.72934624 21.36747387 8.62451172 21.41455078 C7.7434375 21.4396875 6.86236328 21.46482422 5.95458984 21.49072266 C4.68325195 21.50522461 4.68325195 21.50522461 3.38623047 21.52001953 C2.60594482 21.53572998 1.82565918 21.55144043 1.02172852 21.56762695 C-1.63665943 21.13333123 -2.49209489 20.39080389 -4.06298828 18.22705078 C-4.33406109 15.44928316 -4.43669787 12.93367244 -4.37548828 10.16455078 C-4.37871094 9.43171875 -4.38193359 8.69888672 -4.38525391 7.94384766 C-4.30980427 0.47433349 -4.30980427 0.47433349 0 0 Z " fill="#E7E7E7" transform="translate(259.06298828125,323.77294921875)"/>
<path d="M0 0 C6.6 0 13.2 0 20 0 C20 1.32 20 2.64 20 4 C14.39 4 8.78 4 3 4 C3 5.32 3 6.64 3 8 C4.05960937 7.97679687 5.11921875 7.95359375 6.2109375 7.9296875 C7.5989513 7.91093056 8.9869727 7.89273028 10.375 7.875 C11.42300781 7.84986328 11.42300781 7.84986328 12.4921875 7.82421875 C14.32897486 7.80655733 16.16601963 7.89696739 18 8 C20.42522207 10.42522207 20.29629254 11.1720679 20.3125 14.5 C20.33763672 15.69109375 20.33763672 15.69109375 20.36328125 16.90625 C20.24339844 17.5971875 20.12351562 18.288125 20 19 C16.89914429 21.06723714 16.27068319 21.24497423 12.76953125 21.1953125 C11.96708984 21.18886719 11.16464844 21.18242187 10.33789062 21.17578125 C9.50451172 21.15902344 8.67113281 21.14226562 7.8125 21.125 C6.96751953 21.11597656 6.12253906 21.10695313 5.25195312 21.09765625 C3.16784757 21.07410703 1.08388783 21.03823647 -1 21 C-1 19.35 -1 17.7 -1 16 C4.28 16 9.56 16 15 16 C15 15.01 15 14.02 15 13 C14.01257813 13.03480469 13.02515625 13.06960938 12.0078125 13.10546875 C10.72648437 13.13253906 9.44515625 13.15960938 8.125 13.1875 C6.84882813 13.22230469 5.57265625 13.25710938 4.2578125 13.29296875 C3.18273437 13.19628906 2.10765625 13.09960938 1 13 C-1.70238949 8.94641576 -1.22937614 6.81689896 -1 2 C-0.67 1.34 -0.34 0.68 0 0 Z " fill="#E9E9E9" transform="translate(304,324)"/>
<path d="M0 0 C0.74362793 0.01047363 1.48725586 0.02094727 2.25341797 0.03173828 C3.46191406 0.04140625 3.46191406 0.04140625 4.69482422 0.05126953 C5.95746094 0.07640625 5.95746094 0.07640625 7.24560547 0.10205078 C8.51984375 0.11558594 8.51984375 0.11558594 9.81982422 0.12939453 C11.9202043 0.15299431 14.02043991 0.18886595 16.12060547 0.22705078 C17.29486811 2.57557606 17.2356872 3.96479143 17.21826172 6.57861328 C17.21503906 7.42939453 17.21181641 8.28017578 17.20849609 9.15673828 C17.20011719 10.04619141 17.19173828 10.93564453 17.18310547 11.85205078 C17.17859375 12.74923828 17.17408203 13.64642578 17.16943359 14.57080078 C17.15763138 16.78961726 17.14116702 19.00830097 17.12060547 21.22705078 C16.13060547 21.22705078 15.14060547 21.22705078 14.12060547 21.22705078 C14.12060547 15.28705078 14.12060547 9.34705078 14.12060547 3.22705078 C12.47060547 3.22705078 10.82060547 3.22705078 9.12060547 3.22705078 C9.12060547 9.16705078 9.12060547 15.10705078 9.12060547 21.22705078 C7.47060547 21.22705078 5.82060547 21.22705078 4.12060547 21.22705078 C4.12060547 15.61705078 4.12060547 10.00705078 4.12060547 4.22705078 C3.13060547 4.22705078 2.14060547 4.22705078 1.12060547 4.22705078 C1.12060547 9.83705078 1.12060547 15.44705078 1.12060547 21.22705078 C-0.52939453 21.22705078 -2.17939453 21.22705078 -3.87939453 21.22705078 C-3.93731297 18.10212827 -3.97296199 14.97734312 -4.00439453 11.85205078 C-4.02115234 10.96259766 -4.03791016 10.07314453 -4.05517578 9.15673828 C-4.06162109 8.30595703 -4.06806641 7.45517578 -4.07470703 6.57861328 C-4.08518066 5.79309082 -4.0956543 5.00756836 -4.10644531 4.19824219 C-3.7863793 1.41951854 -2.79886116 0.3381321 0 0 Z " fill="#F0F0F0" transform="translate(139.87939453125,323.77294921875)"/>
<path d="M0 0 C1.32 0 2.64 0 4 0 C4 2.97 4 5.94 4 9 C8.29 9 12.58 9 17 9 C17 6.03 17 3.06 17 0 C18.65 0 20.3 0 22 0 C22 7.26 22 14.52 22 22 C20.35 22 18.7 22 17 22 C17 19.36 17 16.72 17 14 C13.04 14 9.08 14 5 14 C5 16.64 5 19.28 5 22 C3.35 22 1.7 22 0 22 C0 14.74 0 7.48 0 0 Z " fill="#E6E6E6" transform="translate(231,323)"/>
<path d="M0 0 C1.65 0 3.3 0 5 0 C5.08685287 3.29150125 5.14033895 6.5827096 5.1875 9.875 C5.21263672 10.81214844 5.23777344 11.74929688 5.26367188 12.71484375 C5.27333984 13.61074219 5.28300781 14.50664062 5.29296875 15.4296875 C5.3086792 16.25710449 5.32438965 17.08452148 5.34057617 17.93701172 C5.22818604 18.61779785 5.1157959 19.29858398 5 20 C1.24986585 22.50008943 -1.72511906 22.29601996 -6.0625 22.25 C-6.79533203 22.25773437 -7.52816406 22.26546875 -8.28320312 22.2734375 C-13.74663018 22.25336982 -13.74663018 22.25336982 -16 20 C-16.22705078 18.02880859 -16.22705078 18.02880859 -16.1953125 15.6484375 C-16.18886719 14.79765625 -16.18242187 13.946875 -16.17578125 13.0703125 C-16.15902344 12.18085938 -16.14226562 11.29140625 -16.125 10.375 C-16.11597656 9.4778125 -16.10695313 8.580625 -16.09765625 7.65625 C-16.0740497 5.43723414 -16.0411231 3.21874923 -16 1 C-15.01 1 -14.02 1 -13 1 C-13 6.28 -13 11.56 -13 17 C-8.71 17 -4.42 17 0 17 C0 11.39 0 5.78 0 0 Z " fill="#ECECEC" transform="translate(295,323)"/>
<path d="M0 0 C3.96 0 7.92 0 12 0 C12 3.96 12 7.92 12 12 C8.04 12 4.08 12 0 12 C0 8.04 0 4.08 0 0 Z " fill="#191919" transform="translate(165,328)"/>
<path d="M0 0 C0.66 0 1.32 0 2 0 C2 5.61 2 11.22 2 17 C1.67 17 1.34 17 1 17 C0.67 14.03 0.34 11.06 0 8 C-5.94 8 -11.88 8 -18 8 C-18 6.68 -18 5.36 -18 4 C-12.06 4 -6.12 4 0 4 C0 2.68 0 1.36 0 0 Z " fill="#292929" transform="translate(277,324)"/>
<path d="M0 0 C3.97097416 3.36172881 4.06494135 7.0369964 5 12 C11.93 12.495 11.93 12.495 19 13 C19 13.99 19 14.98 19 16 C13.72 16 8.44 16 3 16 C3 17.65 3 19.3 3 21 C0.36253137 18.42483378 -0.21887499 16.45668604 -0.29296875 12.890625 C-0.27313353 11.34347769 -0.2375101 9.79646604 -0.1875 8.25 C-0.17396484 7.45722656 -0.16042969 6.66445313 -0.14648438 5.84765625 C-0.11125223 3.89814436 -0.05744821 1.94898374 0 0 Z " fill="#272727" transform="translate(300,324)"/>
<path d="M0 0 C0.99 0.99 1.98 1.98 3 3 C2.67 3.99 2.34 4.98 2 6 C1.88599048 7.51834207 1.82387323 9.04089591 1.79467773 10.56323242 C1.7647599 11.94432442 1.7647599 11.94432442 1.73423767 13.35331726 C1.71752518 14.34402725 1.70081268 15.33473724 1.68359375 16.35546875 C1.66281265 17.37224197 1.64203156 18.3890152 1.62062073 19.43659973 C1.55519952 22.68683063 1.49627463 25.93714277 1.4375 29.1875 C1.39430773 31.38998238 1.35069321 33.59245653 1.30664062 35.79492188 C1.19952573 41.19652853 1.09774543 46.59821612 1 52 C0.67 52 0.34 52 0 52 C0 34.84 0 17.68 0 0 Z " fill="#242424" transform="translate(195,195)"/>
<path d="M0 0 C3.96 0 7.92 0 12 0 C12 1.32 12 2.64 12 4 C8.04 4 4.08 4 0 4 C0 2.68 0 1.36 0 0 Z " fill="#1E1E1E" transform="translate(212,328)"/>
<path d="M0 0 C3.96 0 7.92 0 12 0 C12 1.32 12 2.64 12 4 C8.04 4 4.08 4 0 4 C0 2.68 0 1.36 0 0 Z " fill="#1D1E1E" transform="translate(189,328)"/>
<path d="M0 0 C0.28571429 8.57142857 0.28571429 8.57142857 -2 12 C-2 10.35 -2 8.7 -2 7 C-3.175625 7.0928125 -3.175625 7.0928125 -4.375 7.1875 C-5.24125 7.125625 -6.1075 7.06375 -7 7 C-7.66 6.01 -8.32 5.02 -9 4 C-8.236875 3.71125 -7.47375 3.4225 -6.6875 3.125 C-4.58742065 2.24589701 -2.1647642 0 0 0 Z " fill="#232323" transform="translate(207,333)"/>
<path d="M0 0 C1.32 0 2.64 0 4 0 C4 2.31 4 4.62 4 7 C2.35 7.33 0.7 7.66 -1 8 C-1.625 5.125 -1.625 5.125 -2 2 C-1.34 1.34 -0.68 0.68 0 0 Z " fill="#2A2A2A" transform="translate(256,161)"/>
<path d="M0 0 C2.0625 0.4375 2.0625 0.4375 4 1 C4.33 2.98 4.66 4.96 5 7 C3.02 7.99 3.02 7.99 1 9 C-0.5625 7.8125 -0.5625 7.8125 -2 6 C-1.57894737 1.57894737 -1.57894737 1.57894737 0 0 Z " fill="#343434" transform="translate(263,161)"/>
<path d="M0 0 C1.65 0 3.3 0 5 0 C5 0.99 5 1.98 5 3 C3.02 3.66 1.04 4.32 -1 5 C-0.67 5.99 -0.34 6.98 0 8 C-0.99 9.485 -0.99 9.485 -2 11 C-3.36741555 8.74778616 -4.04066478 7.47442242 -3.8125 4.8125 C-3.4103125 3.9153125 -3.4103125 3.9153125 -3 3 C-2.01 2.67 -1.02 2.34 0 2 C0 1.34 0 0.68 0 0 Z " fill="#222323" transform="translate(272,159)"/>
<path d="M0 0 C1.2065625 0.0309375 1.2065625 0.0309375 2.4375 0.0625 C2.4375 2.0425 2.4375 4.0225 2.4375 6.0625 C0.4575 6.0625 -1.5225 6.0625 -3.5625 6.0625 C-3.605221 4.39638095 -3.60313832 2.72867115 -3.5625 1.0625 C-2.5625 0.0625 -2.5625 0.0625 0 0 Z " fill="#333333" transform="translate(250.5625,160.9375)"/>
<path d="M0 0 C1 1 1 1 1.0625 3.5625 C1.041875 4.366875 1.02125 5.17125 1 6 C0.34 6 -0.32 6 -1 6 C-1 4.68 -1 3.36 -1 2 C-1.66 2 -2.32 2 -3 2 C-3 3.32 -3 4.64 -3 6 C-3.66 6 -4.32 6 -5 6 C-5 4.68 -5 3.36 -5 2 C-5.66 2 -6.32 2 -7 2 C-7 3.32 -7 4.64 -7 6 C-7.66 5.67 -8.32 5.34 -9 5 C-8.625 3.0625 -8.625 3.0625 -8 1 C-5.26752652 -0.36623674 -3.01801098 -0.128426 0 0 Z " fill="#333333" transform="translate(245,161)"/>
<path d="M0 0 C0.66 0.33 1.32 0.66 2 1 C-0.95600447 3.49618156 -3.77886965 5.85257977 -7 8 C-7.33 8.99 -7.66 9.98 -8 11 C-9.32 10.67 -10.64 10.34 -12 10 C-10.7308453 6.1925359 -9.42849251 5.81326707 -6 3.875 C-2.81043387 2.19447491 -2.81043387 2.19447491 0 0 Z " fill="#424242" transform="translate(191,248)"/>
<path d="M0 0 C0.66 0 1.32 0 2 0 C2 2.31 2 4.62 2 7 C-2 7 -2 7 -5 6 C-5 5.01 -5 4.02 -5 3 C-4.01 2.67 -3.02 2.34 -2 2 C-1.67 2.33 -1.34 2.66 -1 3 C-0.67 2.01 -0.34 1.02 0 0 Z " fill="#212223" transform="translate(217,160)"/>
<path d="M0 0 C2.97 0.495 2.97 0.495 6 1 C5.01 1.495 5.01 1.495 4 2 C3.34444881 4.52733235 3.34444881 4.52733235 3 7 C2.01 7 1.02 7 0 7 C0 4.69 0 2.38 0 0 Z " fill="#212121" transform="translate(233,160)"/>
<path d="M0 0 C0.33 0.66 0.66 1.32 1 2 C1.66 2 2.32 2 3 2 C3 1.34 3 0.68 3 0 C3.66 0 4.32 0 5 0 C4.34 2.31 3.68 4.62 3 7 C2.34 7 1.68 7 1 7 C0.67 4.69 0.34 2.38 0 0 Z " fill="#303030" transform="translate(224,162)"/>
<path d="M0 0 C1.32 0 2.64 0 4 0 C4 1.65 4 3.3 4 5 C2.68 4.34 1.36 3.68 0 3 C-0.66 3.66 -1.32 4.32 -2 5 C-1.125 1.125 -1.125 1.125 0 0 Z " fill="#3C3C3C" transform="translate(256,161)"/>
</svg>
